# xmcd
#
# Track frame offsets: 
#        150
#        11602
#        22875
#        37680
#        57465
#        72762
#        85927
#        103020
#        121510
#        136270
#
# Disc length: 2057 seconds
#
# Revision: 6
# Processed by: cddbd v1.5.2PL0 Copyright (c) Steve Scherf et al.
# Submitted via: ExactAudioCopyFreeDBPlugin 1.0
#
DISCID=7008070a
DTITLE=Kelly Willis - Kelly Willis
DYEAR=1993
DGENRE=Country
TTITLE0=Take It All Out On You
TTITLE1=Heaven's Just A Sin Away
TTITLE2=One More Night
TTITLE3=That'll Be Me (duet with Kevin Welch)
TTITLE4=Whatever Way The Wind Blows
TTITLE5=Get Real
TTITLE6=I Know Better Now
TTITLE7=Up All Night
TTITLE8=World Without You
TTITLE9=Shadows Of Love
EXTD=YEAR: 1993
EXTT0=
EXTT1=
EXTT2=
EXTT3=
EXTT4=
EXTT5=
EXTT6=
EXTT7=
EXTT8=
EXTT9=
PLAYORDER=
